<svg xmlns="http://www.w3.org/2000/svg" width="200" height="200" viewBox="0 0 200 200">
  <circle cx="100" cy="100" r="100" fill="#f8f9fa" />
  <!-- Cabeza -->
  <circle cx="100" cy="80" r="40" fill="#FFD700" />
  <!-- Cabello -->
  <path d="M60,70 C60,50 80,30 100,30 C120,30 140,50 140,70 L140,80 C140,85 139,90 137,95 C135,100 132,105 128,109 C124,113 119,116 114,118 C109,120 104,121 100,121 C96,121 91,120 86,118 C81,116 76,113 72,109 C68,105 65,100 63,95 C61,90 60,85 60,80 L60,70 Z" fill="#333333" />
  <!-- Cara -->
  <circle cx="85" cy="75" r="5" fill="#333333" />
  <circle cx="115" cy="75" r="5" fill="#333333" />
  <path d="M90,95 C95,100 105,100 110,95" stroke="#333333" stroke-width="2" fill="none" />
  <!-- Barba -->
  <path d="M70,95 C80,120 120,120 130,95 L130,110 C120,130 80,130 70,110 Z" fill="#333333" />
  <!-- Cuerpo -->
  <path d="M60,120 L140,120 L150,200 L50,200 Z" fill="#6a5acd" />
  <!-- Cuello -->
  <rect x="90" y="120" width="20" height="10" fill="#FFD700" />
</svg>