<svg xmlns="http://www.w3.org/2000/svg" width="200" height="200" viewBox="0 0 200 200">
  <circle cx="100" cy="100" r="100" fill="#f8f9fa" />
  <!-- Cabeza -->
  <circle cx="100" cy="80" r="40" fill="#FFD700" />
  <!-- Cabello -->
  <path d="M60,80 C60,60 80,40 100,40 C120,40 140,60 140,80 C140,85 139,90 137,95 C135,100 132,105 128,109 C124,113 119,116 114,118 C109,120 104,121 100,121 L100,80 Z" fill="#8B4513" />
  <!-- Cara -->
  <circle cx="85" cy="75" r="5" fill="#333333" />
  <circle cx="115" cy="75" r="5" fill="#333333" />
  <path d="M90,95 C95,100 105,100 110,95" stroke="#333333" stroke-width="2" fill="none" />
  <!-- Cuerpo -->
  <path d="M60,120 L140,120 L150,200 L50,200 Z" fill="#ff6b6b" />
  <!-- Cuello -->
  <rect x="90" y="120" width="20" height="10" fill="#FFD700" />
</svg>