<svg xmlns="http://www.w3.org/2000/svg" width="400" height="400" viewBox="0 0 400 400">
  <rect width="400" height="400" fill="#f8f9fa" />
  <g transform="translate(75, 75)">
    <!-- Bolso de mano -->
    <path d="M40,70 L210,70 L250,250 L0,250 L40,70 Z" fill="#6a5acd" />
    <!-- Asa del bolso -->
    <path d="M70,70 C70,30 100,0 125,0 C150,0 180,30 180,70" stroke="#333333" stroke-width="10" fill="none" />
    <!-- Detalles del bolso -->
    <rect x="100" y="120" width="50" height="30" fill="#ffffff" />
    <circle cx="125" cy="135" r="8" fill="#ff6b6b" />
    <!-- Textura -->
    <g fill="none" stroke="#5a4cac" stroke-width="1" opacity="0.5">
      <line x1="40" y1="100" x2="210" y2="100" />
      <line x1="30" y1="130" x2="220" y2="130" />
      <line x1="20" y1="160" x2="230" y2="160" />
      <line x1="10" y1="190" x2="240" y2="190" />
      <line x1="0" y1="220" x2="250" y2="220" />
    </g>
    <!-- Sombra -->
    <ellipse cx="125" cy="270" rx="120" ry="15" fill="#000000" opacity="0.1" />
  </g>
</svg>